<?xml version="1.0" standalone="no"?>
<!DOCTYPE svg PUBLIC "-//W3C//DTD SVG 20010904//EN"
 "http://www.w3.org/TR/2001/REC-SVG-20010904/DTD/svg10.dtd">
<svg version="1.0" xmlns="http://www.w3.org/2000/svg"
 width="500.000000pt" height="500.000000pt" viewBox="0 0 500.000000 500.000000"
 preserveAspectRatio="xMidYMid meet">
<metadata>
Created by potrace 1.16, written by Peter Selinger 2001-2019
</metadata>
<g transform="translate(0.000000,500.000000) scale(0.100000,-0.100000)"
fill="#000000" stroke="none">
<path d="M58 2894 c-2 -9 -1 -41 0 -70 l4 -54 142 0 c192 0 226 -14 226 -90 0
-77 -34 -90 -226 -90 l-143 0 -3 -220 c-2 -121 -2 -225 0 -230 2 -6 35 -10 73
-10 l68 0 3 158 3 157 41 3 40 3 74 -161 73 -160 79 0 c43 0 78 2 78 6 0 3
-27 64 -61 137 -101 218 -95 192 -50 218 68 38 101 102 101 196 0 101 -46 169
-137 203 -46 17 -78 20 -218 20 -143 0 -164 -2 -167 -16z"/>
<path d="M914 2895 c-113 -25 -212 -92 -254 -175 -41 -82 -51 -251 -21 -352
19 -62 74 -131 132 -166 83 -50 139 -63 297 -69 l142 -6 0 247 0 247 -147 -3
-148 -3 -3 -72 -3 -72 78 -3 78 -3 0 -95 0 -95 -27 -3 c-43 -5 -148 26 -186
55 -48 37 -82 113 -82 188 0 116 35 181 120 223 50 24 67 27 188 30 l132 4 0
69 0 69 -117 -1 c-65 0 -145 -7 -179 -14z"/>
<path d="M1625 2886 c-60 -28 -87 -56 -114 -116 -48 -105 -7 -231 91 -281 22
-11 72 -26 111 -34 81 -15 117 -45 117 -94 0 -37 -33 -78 -70 -86 -30 -7 -30
-7 -30 -76 0 -79 1 -80 89 -53 146 43 204 225 111 352 -32 45 -100 82 -163 89
-101 11 -127 30 -127 93 0 58 34 90 95 90 51 0 95 -32 95 -70 0 -18 6 -20 71
-20 l72 0 -6 46 c-16 144 -197 228 -342 160z"/>
<path d="M2002 2743 l3 -168 73 -3 72 -3 0 171 0 170 -75 0 -75 0 2 -167z"/>
<path d="M2450 2665 l0 -245 -225 0 -226 0 3 -142 3 -143 73 -3 72 -3 0 76 0
75 150 0 150 0 0 -75 0 -75 75 0 75 0 0 390 0 390 -75 0 -75 0 0 -245z"/>
<path d="M2874 2892 c-99 -35 -181 -117 -221 -221 -28 -71 -25 -238 5 -313 32
-80 99 -150 180 -190 62 -31 74 -33 167 -33 93 0 105 2 167 33 79 39 129 92
172 181 29 61 31 74 31 171 -1 130 -23 194 -96 275 -74 80 -139 109 -259 112
-72 3 -107 -1 -146 -15z m234 -144 c78 -37 121 -117 121 -228 0 -154 -86 -250
-224 -250 -105 0 -189 64 -216 164 -18 67 -7 176 24 229 61 104 180 138 295
85z"/>
<path d="M2951 2564 c-12 -15 -21 -34 -21 -44 0 -34 39 -70 75 -70 36 0 75 36
75 70 0 34 -39 70 -75 70 -24 0 -39 -7 -54 -26z"/>
<path d="M3817 2878 c-8 -18 -42 -108 -77 -201 -35 -92 -67 -164 -71 -160 -4
5 -27 62 -51 128 l-43 120 -78 3 -77 3 24 -63 c111 -292 219 -574 223 -578 8
-9 21 23 124 294 56 149 105 274 108 278 4 4 49 -104 100 -240 118 -310 130
-337 140 -326 8 9 229 580 238 615 5 17 -1 19 -69 19 l-75 0 -48 -131 c-26
-72 -51 -127 -55 -122 -6 7 -34 80 -132 341 l-19 52 -75 0 -74 0 -13 -32z"/>
<path d="M4586 2895 c-49 -17 -103 -68 -127 -120 -22 -48 -25 -142 -5 -188 29
-69 105 -118 201 -132 71 -11 101 -29 115 -69 15 -47 -7 -90 -55 -107 l-35
-13 0 -69 0 -70 41 7 c115 18 199 110 199 218 0 64 -17 114 -52 154 -42 47
-93 72 -175 84 -54 7 -73 14 -90 35 -51 58 -5 145 75 145 46 0 89 -29 94 -63
3 -20 10 -22 67 -25 35 -2 68 1 73 6 7 7 4 30 -6 65 -19 64 -82 129 -142 146
-53 15 -131 13 -178 -4z"/>
</g>
</svg>
